<?xml version="1.0" standalone="no"?><!DOCTYPE svg PUBLIC "-//W3C//DTD SVG 1.1//EN" "http://www.w3.org/Graphics/SVG/1.1/DTD/svg11.dtd"><svg t="1619452856090" class="icon" viewBox="0 0 1024 1024" version="1.1" xmlns="http://www.w3.org/2000/svg" p-id="18874" xmlns:xlink="http://www.w3.org/1999/xlink" width="70" height="70"><defs><style type="text/css"></style></defs><path d="M618.839 438.333a283.903 283.903 0 0 0 14.473-89.591c0-157.091-127.322-284.438-284.418-284.438S64.448 191.65 64.448 348.742c0 157.102 127.348 284.443 284.445 284.443 31.278 0 61.342-5.116 89.512-14.442l64.791 64.785h137.741v137.748l0.243 0.241h137.74V959.26l0.268 0.266h180.36v0.17-180.652l-340.71-340.71z m-329.152-54.767c-52.989 0-95.972-42.984-95.972-95.967 0-53.013 42.983-95.972 95.972-95.972 53.014 0 95.972 42.959 95.972 95.972 0 52.983-42.958 95.967-95.972 95.967z" fill="" p-id="18875"></path></svg>