<?xml version="1.0" standalone="no"?><!DOCTYPE svg PUBLIC "-//W3C//DTD SVG 1.1//EN" "http://www.w3.org/Graphics/SVG/1.1/DTD/svg11.dtd"><svg t="1619453009841" class="icon" viewBox="0 0 1024 1024" version="1.1" xmlns="http://www.w3.org/2000/svg" p-id="21045" xmlns:xlink="http://www.w3.org/1999/xlink" width="70" height="70"><defs><style type="text/css"></style></defs><path d="M514.6 885.8h-25.8c-15 0-27.3-12.3-27.3-27.3v-29.4h80.4v29.4c0 15-12.3 27.3-27.3 27.3z" fill="#00D697" p-id="21046"></path><path d="M572.4 778.9h-160l-3-32h160z" fill="#33A3F4" p-id="21047"></path><path d="M542.6 502.1m-243.3 0a243.3 243.3 0 1 0 486.6 0 243.3 243.3 0 1 0-486.6 0Z" fill="#FFC715" p-id="21048"></path><path d="M454.3 465.1m-125.1 0a125.1 125.1 0 1 0 250.2 0 125.1 125.1 0 1 0-250.2 0Z" fill="#DDAA19" p-id="21049"></path><path d="M564 840.9H457.8c-18.2 0-33.1-14.8-33.1-33.1V722c-46.8-17.4-87-48.1-116.3-88.9-30.5-42.6-46.6-92.8-46.6-145.4 0-66.7 26-129.5 73.2-176.7 47.2-47.2 109.9-73.2 176.7-73.2s129.5 26 176.7 73.2c47.2 47.2 73.2 109.9 73.2 176.7 0 105-65.9 199-164.4 234.8v85.3c-0.1 18.3-14.9 33.1-33.2 33.1z m-52.4-595c-133.3 0-241.8 108.5-241.8 241.8 0 101.9 64.5 193.5 160.4 227.8 1.8 0.6 2.8 2.4 2.6 4.2-0.1 0.6-0.1 1.1-0.1 1.6v86.5c0 13.8 11.2 25.1 25.1 25.1H564c13.8 0 25.1-11.2 25.1-25.1v-86.5c0-0.4 0-0.8-0.1-1.3-0.2-1.8 0.9-3.5 2.7-4.1 96.8-33.9 161.8-125.7 161.8-228.2 0-133.3-108.5-241.8-241.9-241.8z" fill="" p-id="21050"></path><path d="M524.5 897.6h-25.8c-17.2 0-31.3-14-31.3-31.3v-33.4h88.4v33.4c0 17.3-14 31.3-31.3 31.3z m-49.1-56.7v25.4c0 12.8 10.4 23.3 23.3 23.3h25.8c12.8 0 23.3-10.4 23.3-23.3v-25.4h-72.4zM429.1 731.8h165.1v8.6H429.1zM429.1 781.3h165.1v8.6H429.1zM482.9 678.5h57.4v8.6h-57.4z" fill="" p-id="21051"></path><path d="M543.6 738.7h-64V520h64v218.7z m-56-8h48V528h-48v202.7z" fill="" p-id="21052"></path><path d="M487.6 528h-28.9c-15.8 0-28.7-12.9-28.7-28.7 0-15.8 12.9-28.7 28.7-28.7h0.2c15.8 0 28.7 12.9 28.7 28.7V528z m-28.9-49.3c-11.4 0-20.7 9.3-20.7 20.7 0 11.4 9.3 20.7 20.7 20.7h20.9v-20.7c0-11.4-9.3-20.7-20.7-20.7h-0.2zM564.6 528h-28.9v-28.7c0-15.8 12.9-28.7 28.7-28.7h0.2c15.8 0 28.7 12.9 28.7 28.7-0.1 15.8-12.9 28.7-28.7 28.7z m-20.9-8h20.9c11.4 0 20.7-9.3 20.7-20.7 0-11.4-9.3-20.7-20.7-20.7h-0.2c-11.4 0-20.7 9.3-20.7 20.7V520zM511.9 201.7c-4.7 0-8.6-3.9-8.6-8.6V135c0-4.7 3.9-8.6 8.6-8.6 4.7 0 8.6 3.9 8.6 8.6v58.1c0 4.7-3.8 8.6-8.6 8.6zM714.3 287.3c-3.3-3.3-3.3-8.8 0-12.2l41.1-41.1c3.3-3.3 8.8-3.3 12.2 0 3.3 3.3 3.3 8.8 0 12.2l-41.1 41.1c-3.3 3.4-8.8 3.4-12.2 0zM798.6 489.6c0-4.7 3.9-8.6 8.6-8.6h58.1c4.7 0 8.6 3.9 8.6 8.6 0 4.7-3.9 8.6-8.6 8.6h-58.1c-4.7 0-8.6-3.9-8.6-8.6zM714.7 692.4c3.3-3.3 8.8-3.3 12.2 0l41.1 41.1c3.3 3.3 3.3 8.8 0 12.2-3.3 3.3-8.8 3.3-12.2 0l-41.1-41.1c-3.3-3.4-3.3-8.9 0-12.2zM776.6 598.9c1.8-4.4 6.9-6.5 11.3-4.6l29.8 12.5c4.4 1.8 6.5 6.9 4.6 11.3-1.8 4.4-6.9 6.5-11.3 4.6l-29.8-12.5c-4.4-1.9-6.4-6.9-4.6-11.3zM776.8 379.8c-1.8-4.4 0.2-9.4 4.6-11.3l29.8-12.5c4.4-1.8 9.4 0.2 11.3 4.6 1.8 4.4-0.2 9.4-4.6 11.3l-29.8 12.5c-4.4 1.9-9.5-0.2-11.3-4.6zM621.6 225c-4.4-1.8-6.5-6.9-4.6-11.3l12.4-29.8c1.8-4.4 6.9-6.5 11.3-4.6 4.4 1.8 6.5 6.9 4.6 11.3l-12.4 29.8c-1.9 4.4-6.9 6.4-11.3 4.6z" fill="" p-id="21053"></path><path d="M309.7 287.3c3.3-3.3 3.3-8.8 0-12.2L268.6 234c-3.3-3.3-8.8-3.3-12.2 0-3.3 3.3-3.3 8.8 0 12.2l41.1 41.1c3.3 3.4 8.8 3.4 12.2 0zM225.4 489.6c0-4.7-3.9-8.6-8.6-8.6h-58.1c-4.7 0-8.6 3.9-8.6 8.6 0 4.7 3.9 8.6 8.6 8.6h58.1c4.7 0 8.6-3.9 8.6-8.6zM309.3 692.4c-3.3-3.3-8.8-3.3-12.2 0L256 733.5c-3.3 3.3-3.3 8.8 0 12.2 3.3 3.3 8.8 3.3 12.2 0l41.1-41.1c3.3-3.4 3.3-8.9 0-12.2zM247.4 598.9c-1.8-4.4-6.9-6.5-11.3-4.6l-29.8 12.5c-4.4 1.8-6.5 6.9-4.6 11.3 1.8 4.4 6.9 6.5 11.3 4.6l29.8-12.5c4.4-1.9 6.4-6.9 4.6-11.3zM247.2 379.8c1.8-4.4-0.2-9.4-4.6-11.3L212.8 356c-4.4-1.8-9.4 0.2-11.3 4.6-1.8 4.4 0.2 9.4 4.6 11.3l29.8 12.5c4.4 1.9 9.5-0.2 11.3-4.6zM402.4 225c4.4-1.8 6.5-6.9 4.6-11.3l-12.4-29.8c-1.8-4.4-6.9-6.5-11.3-4.6-4.4 1.8-6.5 6.9-4.6 11.3l12.4 29.8c1.9 4.4 6.9 6.4 11.3 4.6z" fill="" p-id="21054"></path><path d="M688.4 385.4c-1.4 0-2.7-0.7-3.5-2-16.7-28.8-40.7-53.1-69.3-70.3-1.9-1.1-2.5-3.6-1.4-5.5s3.6-2.5 5.5-1.4c29.8 17.9 54.7 43.2 72.1 73.1 1.1 1.9 0.5 4.4-1.5 5.5-0.5 0.4-1.2 0.6-1.9 0.6zM596.1 300.3c-0.6 0-1.1-0.1-1.7-0.4-8-3.7-16.3-6.8-24.6-9.4-2.1-0.6-3.3-2.9-2.7-5 0.6-2.1 2.9-3.3 5-2.7 8.7 2.7 17.4 5.9 25.7 9.8 2 0.9 2.9 3.3 2 5.3-0.8 1.5-2.2 2.4-3.7 2.4zM621.2 683.8c-1.3 0-2.6-0.6-3.4-1.8-1.2-1.9-0.7-4.3 1.2-5.5 45.4-29.4 77.1-76.8 87-129.9 0.4-2.2 2.5-3.6 4.7-3.2 2.2 0.4 3.6 2.5 3.2 4.7-10.3 55.3-43.3 104.5-90.5 135.1-0.7 0.4-1.5 0.6-2.2 0.6z" fill="#FEFEFE" p-id="21055"></path></svg>