<?xml version="1.0" standalone="no"?><!DOCTYPE svg PUBLIC "-//W3C//DTD SVG 1.1//EN" "http://www.w3.org/Graphics/SVG/1.1/DTD/svg11.dtd"><svg t="1619535627169" class="icon" viewBox="0 0 1280 1024" version="1.1" xmlns="http://www.w3.org/2000/svg" p-id="22259" xmlns:xlink="http://www.w3.org/1999/xlink" width="87.5" height="70"><defs><style type="text/css"></style></defs><path d="M942.744635 504.836056c49.695612 9.855923 205.854392 81.823361 119.903063 263.67794-85.951329 181.566582-369.341115 269.981891-579.323474 253.534019C283.709784 1006.464137 27.103788 940.512652 0.607995 700.322529c0 0-14.07989-108.79915 92.031281-249.59805 0 0 152.542808-211.902345 330.173421-272.381872 177.854611-60.12753 198.558449 41.695674 198.558449 101.887204-9.471926 51.039601-27.135788 81.055367 39.61569 60.479527 0 0 174.782635-80.63937 246.718073-9.119929 58.047547 57.759549 9.599925 137.182928 9.599925 137.182929s-24.095812 26.495793 25.439801 36.063718zM511.740002 959.360505C724.090343 949.600581 895.993 814.721635 895.993 671.106757c0-143.550879-171.902657-232.254186-384.252998-222.334263C299.54966 458.692416 127.999 574.019515 127.999 717.762392c0 143.678878 171.55066 251.614034 383.741002 241.566113zM1051.895782 416.00475a33.919735 33.919735 0 0 0 33.535738-28.607777 15.007883 15.007883 0 0 0 0.447997-3.615971c25.471801-228.510215-187.774533-189.182522-187.774533-189.182522-18.911852 0-34.111734 15.263881-34.111734 34.303732 0 18.783853 15.199881 34.047734 34.111734 34.047734 153.182803-33.727737 119.359068 119.00707 119.359067 119.00707 0 18.879853 15.487879 34.047734 34.431731 34.047734z" fill="#CC1722" p-id="22260"></path><path d="M1019.864032 8.167936c-76.095406-17.279865-154.430794-2.399981-176.318622 1.663987-1.727987 0.191999-3.295974 1.727987-4.863962 2.015984-0.767994 0.127999-1.27999 0.927993-1.27999 0.927993A50.335607 50.335607 0 0 0 799.99375 60.999523c0 27.327787 22.879821 49.791611 51.359599 49.791611 0 0 27.711784-3.615972 46.495637-10.719916 18.655854-7.263943 176.350622-5.439958 254.68601 122.015047 42.719666 92.991274 18.783853 155.230787 15.775877 165.246709 0 0-10.175921 24.159811-10.175921 47.967625 0 27.423786 22.911821 44.703651 51.1996 44.703651 23.679815 0 43.58366-3.135976 49.407614-41.919673h0.287998C1343.125507 166.566699 1156.118968 38.951696 1019.832033 8.167936z" fill="#CC1722" p-id="22261"></path><path d="M482.652229 546.051734c219.358286-24.479809 258.55798 177.086617 191.838502 259.965969-66.719479 82.815353-198.686448 123.263037-326.877447 56.511558-60.959524-31.839751-58.719541-94.399263-58.719541-94.399262s-25.311802-197.406458 193.758486-222.078265zM383.997 831.393505c35.295724-4.671964 63.9995-36.127718 63.9995-70.175452 0-34.143733-26.495793-61.215522-67.199475-56.735557-35.455723 4.255967-60.799525 39.903688-60.799525 73.919423 0 34.175733 28.511777 57.759549 63.9995 52.991586z m143.454879-102.783197c15.167882-11.455911 21.023836-31.455754 12.7999-44.79965-8.159936-12.991899-27.071789-16.70387-45.279646-3.743971-15.679878 10.943915-18.879853 31.775752-10.335919 44.79965 8.191936 13.311896 27.295787 14.847884 42.815665 3.743971z" fill="#333333" p-id="22262"></path></svg>